<mxfile host="Electron" agent="Mozilla/5.0 (Macintosh; Intel Mac OS X 10_15_7) AppleWebKit/537.36 (KHTML, like Gecko) draw.io/26.1.1 Chrome/132.0.6834.210 Electron/34.3.3 Safari/537.36" version="26.1.1">
  <diagram name="Page-1" id="AWbfIFvQUlCHqw1cZViq">
    <mxGraphModel dx="1114" dy="878" grid="1" gridSize="10" guides="1" tooltips="1" connect="1" arrows="1" fold="1" page="1" pageScale="1" pageWidth="827" pageHeight="1169" math="0" shadow="0">
      <root>
        <mxCell id="0" />
        <mxCell id="1" parent="0" />
        <mxCell id="kVu-VGLcswtPV8fbyUHt-1" value="" style="rounded=1;whiteSpace=wrap;html=1;fillColor=#f5f5f5;fontColor=#333333;strokeColor=#666666;" vertex="1" parent="1">
          <mxGeometry x="520" y="240" width="120" height="60" as="geometry" />
        </mxCell>
        <mxCell id="kVu-VGLcswtPV8fbyUHt-2" value="요청이&lt;div&gt;제출됐다&lt;/div&gt;" style="whiteSpace=wrap;html=1;aspect=fixed;fillColor=#ffe6cc;strokeColor=#d79b00;" vertex="1" parent="1">
          <mxGeometry x="80" y="80" width="60" height="60" as="geometry" />
        </mxCell>
        <mxCell id="kVu-VGLcswtPV8fbyUHt-3" value="요청이&lt;div&gt;승인됐다&lt;/div&gt;" style="whiteSpace=wrap;html=1;aspect=fixed;fillColor=#ffe6cc;strokeColor=#d79b00;" vertex="1" parent="1">
          <mxGeometry x="160" y="40" width="60" height="60" as="geometry" />
        </mxCell>
        <mxCell id="kVu-VGLcswtPV8fbyUHt-4" value="요청이&lt;div&gt;반려됐다&lt;/div&gt;" style="whiteSpace=wrap;html=1;aspect=fixed;fillColor=#ffe6cc;strokeColor=#d79b00;" vertex="1" parent="1">
          <mxGeometry x="160" y="120" width="60" height="60" as="geometry" />
        </mxCell>
        <mxCell id="kVu-VGLcswtPV8fbyUHt-5" value="이벤트" style="whiteSpace=wrap;html=1;aspect=fixed;fillColor=#ffe6cc;strokeColor=#d79b00;" vertex="1" parent="1">
          <mxGeometry x="560" y="250" width="40" height="40" as="geometry" />
        </mxCell>
        <mxCell id="kVu-VGLcswtPV8fbyUHt-6" value="주문이&lt;div&gt;생성됐다&lt;/div&gt;" style="whiteSpace=wrap;html=1;aspect=fixed;fillColor=#ffe6cc;strokeColor=#d79b00;" vertex="1" parent="1">
          <mxGeometry x="240" y="40" width="60" height="60" as="geometry" />
        </mxCell>
        <mxCell id="kVu-VGLcswtPV8fbyUHt-7" value="고객에게&lt;div&gt;알렸다&lt;/div&gt;" style="whiteSpace=wrap;html=1;aspect=fixed;fillColor=#ffe6cc;strokeColor=#d79b00;" vertex="1" parent="1">
          <mxGeometry x="240" y="120" width="60" height="60" as="geometry" />
        </mxCell>
        <mxCell id="kVu-VGLcswtPV8fbyUHt-13" style="rounded=0;orthogonalLoop=1;jettySize=auto;html=1;entryX=0;entryY=0.5;entryDx=0;entryDy=0;endArrow=block;endFill=1;" edge="1" parent="1" source="kVu-VGLcswtPV8fbyUHt-8" target="kVu-VGLcswtPV8fbyUHt-9">
          <mxGeometry relative="1" as="geometry" />
        </mxCell>
        <mxCell id="kVu-VGLcswtPV8fbyUHt-14" style="rounded=0;orthogonalLoop=1;jettySize=auto;html=1;entryX=0;entryY=0.5;entryDx=0;entryDy=0;endArrow=block;endFill=1;" edge="1" parent="1" source="kVu-VGLcswtPV8fbyUHt-8" target="kVu-VGLcswtPV8fbyUHt-10">
          <mxGeometry relative="1" as="geometry" />
        </mxCell>
        <mxCell id="kVu-VGLcswtPV8fbyUHt-8" value="요청이&lt;div&gt;제출됐다&lt;/div&gt;" style="whiteSpace=wrap;html=1;aspect=fixed;fillColor=#ffe6cc;strokeColor=#d79b00;" vertex="1" parent="1">
          <mxGeometry x="390" y="80" width="60" height="60" as="geometry" />
        </mxCell>
        <mxCell id="kVu-VGLcswtPV8fbyUHt-9" value="요청이&lt;div&gt;승인됐다&lt;/div&gt;" style="whiteSpace=wrap;html=1;aspect=fixed;fillColor=#ffe6cc;strokeColor=#d79b00;" vertex="1" parent="1">
          <mxGeometry x="500" y="40" width="60" height="60" as="geometry" />
        </mxCell>
        <mxCell id="kVu-VGLcswtPV8fbyUHt-10" value="요청이&lt;div&gt;반려됐다&lt;/div&gt;" style="whiteSpace=wrap;html=1;aspect=fixed;fillColor=#ffe6cc;strokeColor=#d79b00;" vertex="1" parent="1">
          <mxGeometry x="500" y="120" width="60" height="60" as="geometry" />
        </mxCell>
        <mxCell id="kVu-VGLcswtPV8fbyUHt-11" value="주문이&lt;div&gt;생성됐다&lt;/div&gt;" style="whiteSpace=wrap;html=1;aspect=fixed;fillColor=#ffe6cc;strokeColor=#d79b00;" vertex="1" parent="1">
          <mxGeometry x="580" y="40" width="60" height="60" as="geometry" />
        </mxCell>
        <mxCell id="kVu-VGLcswtPV8fbyUHt-12" value="고객에게&lt;div&gt;알렸다&lt;/div&gt;" style="whiteSpace=wrap;html=1;aspect=fixed;fillColor=#ffe6cc;strokeColor=#d79b00;" vertex="1" parent="1">
          <mxGeometry x="580" y="120" width="60" height="60" as="geometry" />
        </mxCell>
      </root>
    </mxGraphModel>
  </diagram>
</mxfile>
